<?xml version="1.0" standalone="no"?>
<!DOCTYPE svg PUBLIC "-//W3C//DTD SVG 20010904//EN"
 "http://www.w3.org/TR/2001/REC-SVG-20010904/DTD/svg10.dtd">
<svg version="1.0" xmlns="http://www.w3.org/2000/svg"
 width="2000.000000pt" height="2000.000000pt" viewBox="0 0 2000.000000 2000.000000"
 preserveAspectRatio="xMidYMid meet">
<metadata>
Created by potrace 1.11, written by Peter Selinger 2001-2013
</metadata>
<g transform="translate(0.000000,2000.000000) scale(0.100000,-0.100000)"
fill="#000000" stroke="none">
<path d="M5 19988 c-3 -7 -4 -4506 -3 -9998 l3 -9985 9995 0 9995 0 0 9995 0
9995 -9993 3 c-7989 2 -9994 0 -9997 -10z m11725 -3168 c224 -14 390 -27 610
-51 351 -38 1279 -174 2170 -319 234 -38 476 -76 539 -85 63 -8 115 -16 116
-18 1 -1 -42 -823 -96 -1827 -54 -1004 -98 -1837 -99 -1852 l0 -28 -825 0
c-760 0 -826 1 -832 17 -3 9 -131 590 -283 1292 l-276 1275 -69 54 c-134 103
-402 214 -671 277 -234 56 -498 88 -864 106 -649 32 -1096 -46 -1555 -271
-276 -135 -527 -321 -770 -571 -751 -771 -1189 -1917 -1329 -3484 -32 -353
-38 -484 -43 -1013 -7 -680 9 -1060 68 -1592 111 -1012 357 -1908 729 -2650
538 -1075 1297 -1659 2300 -1769 331 -36 872 -17 1240 45 386 65 748 226 1026
458 l81 67 393 922 c216 507 396 925 399 929 6 7 1500 -130 1510 -138 5 -5
-349 -2758 -358 -2774 -5 -10 -49 -19 -145 -31 -262 -33 -385 -61 -1221 -279
-647 -169 -1168 -280 -1525 -324 -500 -62 -1237 -81 -1775 -45 -1940 129
-3370 837 -4366 2159 -744 988 -1175 2230 -1298 3740 -33 393 -42 1087 -21
1448 83 1388 446 2543 1125 3572 771 1169 1881 2006 3249 2449 548 177 1168
287 1811 321 199 10 818 4 1055 -10z"/>
</g>
</svg>
